HIERARCHY
ROOT Hips
{
	OFFSET 0.000000 88.474243 0.000000
	CHANNELS 6 Xposition Yposition Zposition Zrotation Yrotation Xrotation 
	JOINT Hips_Spine
	{
		OFFSET 0.000000 0.000000 0.000000
		CHANNELS 3 Zrotation Yrotation Xrotation
		JOINT Spine
		{
			OFFSET 0.005100 8.711998 -0.691000
			CHANNELS 3 Zrotation Yrotation Xrotation
			JOINT Spine1
			{
				OFFSET -0.009200 8.660301 -1.275000
				CHANNELS 3 Zrotation Yrotation Xrotation
				JOINT Spine2
				{
					OFFSET 0.006300 9.852501 -1.857000
					CHANNELS 3 Zrotation Yrotation Xrotation
					JOINT Spine2_Neck
					{
						OFFSET 0.000000 0.000000 0.000000
						CHANNELS 3 Zrotation Yrotation Xrotation
						JOINT Neck
						{
							OFFSET 0.016300 11.420799 -0.263300
							CHANNELS 3 Zrotation Yrotation Xrotation
							End Site #name: Head
							{
								OFFSET -0.019200 9.262405 2.362500
							}
						}
					}
					JOINT Spine2_LeftShoulder
					{
						OFFSET 0.000000 0.000000 0.000000
						CHANNELS 3 Zrotation Yrotation Xrotation
						JOINT LeftShoulder
						{
							OFFSET 5.616900 6.732201 -0.345700
							CHANNELS 3 Zrotation Yrotation Xrotation
							JOINT LeftArm
							{
								OFFSET 10.664888 -0.183372 -2.440700
								CHANNELS 3 Zrotation Yrotation Xrotation
								JOINT LeftForeArm
								{
									OFFSET 27.459126 0.000000 0.000000
									CHANNELS 3 Zrotation Yrotation Xrotation
									End Site #name: LeftHand
									{
										OFFSET 21.306858 0.000000 0.000000
									}
								}
							}
						}
					}
					JOINT Spine2_RightShoulder
					{
						OFFSET 0.000000 0.000000 0.000000
						CHANNELS 3 Zrotation Yrotation Xrotation
						JOINT RightShoulder
						{
							OFFSET -5.580300 6.737503 -0.344400
							CHANNELS 3 Zrotation Yrotation Xrotation
							JOINT RightArm
							{
								OFFSET -10.679335 -0.188484 -2.383900
								CHANNELS 3 Zrotation Yrotation Xrotation
								JOINT RightForeArm
								{
									OFFSET -27.503529 0.000000 0.000000
									CHANNELS 3 Zrotation Yrotation Xrotation
									End Site #name: RightHand
									{
										OFFSET -21.306808 0.000000 0.000000
									}
								}
							}
						}
					}
				}
			}
		}
	}
	JOINT Hips_LeftUpLeg
	{
		OFFSET 0.000000 0.000000 0.000000
		CHANNELS 3 Zrotation Yrotation Xrotation
		JOINT LeftUpLeg
		{
			OFFSET 6.857700 -6.739601 0.312100
			CHANNELS 3 Zrotation Yrotation Xrotation
			JOINT LeftLeg
			{
				OFFSET -0.367590 -34.731552 -4.572400
				CHANNELS 3 Zrotation Yrotation Xrotation
				End Site #name: LeftFoot
				{
					OFFSET 0.367590 -34.656704 -6.067400
				}
			}
		}
	}
	JOINT Hips_RightUpLeg
	{
		OFFSET 0.000000 0.000000 0.000000
		CHANNELS 3 Zrotation Yrotation Xrotation
		JOINT RightUpLeg
		{
			OFFSET -6.876100 -6.733299 0.301000
			CHANNELS 3 Zrotation Yrotation Xrotation
			JOINT RightLeg
			{
				OFFSET 0.347353 -34.795158 -4.515900
				CHANNELS 3 Zrotation Yrotation Xrotation
				End Site #name: RightFoot
				{
					OFFSET -0.347353 -34.589367 -6.070300
				}
			}
		}
	}
}
MOTION
Frames: 14
Frame Time: 0.041667
-9.214746 -0.515755 4.464072 -8.289148 3.225544 26.722844 0.000000 0.000000 0.000000 -6.941369 2.435436 7.422395 -2.066066 1.194035 4.319017 0.000000 0.000000 0.000000 -1.931295 1.399895 4.188994 0.235219 5.685423 -1.965953 -2.027816 1.309702 4.108482 -13.689018 -2.391685 10.687283 -42.543104 -12.285023 2.257379 0.133146 -29.280668 0.405540 -1.905672 1.134327 4.300020 21.754423 2.817239 13.152925 48.907835 9.396852 -3.994876 -0.004132 17.829340 -0.269625 -0.000000 -0.000000 -0.000000 7.849588 19.287759 -56.219466 5.120486 -10.841691 35.325930 -0.000000 -0.000000 -0.000000 12.986001 -6.985576 -41.058141 1.942205 -0.384440 20.674344 
-9.139071 -0.400604 4.711807 -8.220173 3.311152 26.359381 0.000000 0.000000 0.000000 -7.116247 2.237471 7.074993 -2.152972 1.131077 3.932303 0.000000 0.000000 0.000000 -2.024071 1.379333 3.845914 0.282948 5.663941 -2.032194 -2.124658 1.259268 3.696485 -13.802221 -1.928618 10.574077 -43.131864 -11.720056 2.058178 0.135141 -28.903538 0.390958 -1.999016 1.099612 3.890571 22.060411 1.949845 12.980366 48.609321 9.598311 -4.577519 0.009688 18.037739 -0.269591 -0.000000 -0.000000 -0.000000 7.941100 19.248343 -55.401640 5.172922 -10.732567 34.805399 -0.000000 -0.000000 -0.000000 12.937188 -7.386733 -40.303323 1.971559 -0.319963 20.083127 
-9.020389 -0.281797 4.942792 -8.151262 3.390949 25.938771 0.000000 0.000000 0.000000 -7.233248 2.027137 6.675317 -2.190361 1.076272 3.605062 0.000000 0.000000 0.000000 -2.064304 1.355422 3.547542 0.257506 5.542572 -2.114687 -2.172406 1.224722 3.403512 -13.874504 -1.557965 10.479277 -43.757514 -11.206981 1.745574 0.137887 -28.421235 0.381055 -2.054705 1.066186 3.572628 22.390611 1.071635 12.908417 48.150190 9.593023 -4.925492 0.020844 18.017043 -0.271042 -0.000000 -0.000000 -0.000000 8.022310 19.205432 -54.530407 5.218389 -10.577818 34.293190 -0.000000 -0.000000 -0.000000 12.879042 -7.875196 -39.500630 1.971670 -0.205640 19.447990 
-8.857914 -0.157742 5.153419 -8.078750 3.445698 25.478625 0.000000 0.000000 0.000000 -7.287846 1.800468 6.251423 -2.190688 1.032715 3.327239 0.000000 0.000000 0.000000 -2.062078 1.333524 3.299532 0.174107 5.313023 -2.217869 -2.181571 1.195210 3.162571 -13.910076 -1.302937 10.415853 -44.400079 -10.694899 1.324123 0.141207 -27.865329 0.373505 -2.071501 1.040509 3.303988 22.713861 0.198834 12.913232 47.579434 9.388378 -4.963851 0.032075 17.783687 -0.273725 -0.000000 -0.000000 -0.000000 8.097878 19.154651 -53.616726 5.270286 -10.366511 33.794670 0.000000 -0.000000 -0.000000 12.785822 -8.444821 -38.660292 1.940451 -0.065504 18.780437 
-8.651372 -0.026844 5.339403 -8.004011 3.470782 24.994040 0.000000 0.000000 0.000000 -7.295157 1.567843 5.822898 -2.158673 1.004463 3.124767 0.000000 0.000000 0.000000 -2.030101 1.317420 3.094194 0.051628 4.970202 -2.338560 -2.161599 1.174201 2.962920 -13.924629 -1.160490 10.389721 -45.018178 -10.235591 0.740712 0.146450 -27.279370 0.371127 -2.059724 1.024142 3.077350 23.013113 -0.620739 12.986687 46.929922 8.983137 -4.697082 0.039422 17.346010 -0.275335 -0.000000 -0.000000 -0.000000 8.170205 19.080934 -52.660525 5.330706 -10.104605 33.281691 0.000000 -0.000000 -0.000000 12.649853 -9.087198 -37.805664 1.876275 0.126679 18.116376 
-8.405321 0.111160 5.495399 -7.930075 3.470354 24.488387 0.000000 0.000000 0.000000 -7.261950 1.406933 5.461252 -2.108437 0.985663 2.953016 0.000000 0.000000 0.000000 -1.980894 1.307544 2.922726 -0.082099 4.524889 -2.437774 -2.124949 1.160433 2.794390 -13.912536 -1.111817 10.411753 -45.634174 -9.819802 -0.003652 0.149069 -26.633042 0.376089 -2.028678 1.018561 2.890443 23.226029 -1.363994 13.112938 46.217334 8.412851 -4.145192 0.041033 16.915159 -0.282955 -0.000000 -0.000000 -0.000000 8.229131 18.984700 -51.691008 5.407952 -9.798535 32.762202 0.000000 -0.000000 -0.000000 12.515046 -9.796600 -36.959636 1.766575 0.388211 17.471538 
-8.124364 0.253755 5.614289 -7.861570 3.437914 23.979330 0.000000 0.000000 0.000000 -7.192145 1.290291 5.211606 -2.057022 0.978597 2.807912 0.000000 0.000000 0.000000 -1.925180 1.303960 2.781021 -0.201406 3.982012 -2.459736 -2.080331 1.154148 2.653138 -13.878862 -1.154573 10.475616 -46.190477 -9.429999 -0.863925 0.149443 -26.003941 0.385814 -1.986142 1.020837 2.738394 23.299070 -1.990516 13.289651 45.730721 7.757441 -3.438753 0.035193 16.641438 -0.295460 -0.000000 -0.000000 -0.000000 8.270939 18.855202 -50.731593 5.503724 -9.459480 32.254843 0.000000 -0.000000 -0.000000 12.370362 -10.515057 -36.147386 1.591637 0.640745 16.876911 
-7.812136 0.395742 5.687040 -7.790703 3.383874 23.489756 0.000000 0.000000 0.000000 -7.122707 1.210295 5.038569 -2.009548 0.988473 2.677863 0.000000 0.000000 0.000000 -1.873541 1.304907 2.661225 -0.311336 3.385924 -2.449275 -2.032127 1.154031 2.528438 -13.824275 -1.257350 10.590849 -46.598925 -9.090800 -1.591308 0.149892 -25.356889 0.396074 -1.938619 1.028101 2.636441 23.202670 -2.489095 13.490255 45.557206 7.101805 -2.730967 0.025421 16.439780 -0.309520 -0.000000 -0.000000 -0.000000 8.268206 18.711716 -49.798391 5.612671 -9.105326 31.726074 0.000000 -0.000000 -0.000000 12.208846 -11.228693 -35.397654 1.373307 0.867680 16.342912 
-7.472370 0.535423 5.706747 -7.712871 3.333499 23.054340 0.000000 0.000000 0.000000 -7.080043 1.173707 5.006472 -1.974580 1.004044 2.555245 0.000000 0.000000 0.000000 -1.832843 1.308300 2.550556 -0.392470 2.794279 -2.401188 -1.987140 1.159189 2.447190 -13.753908 -1.411685 10.755962 -46.969795 -8.843454 -2.285527 0.151117 -24.794128 0.403847 -1.895270 1.038151 2.549090 22.984719 -2.887367 13.662286 45.670899 6.660647 -2.033508 0.015575 16.322846 -0.332234 -0.000000 -0.000000 -0.000000 8.214878 18.533482 -48.968153 5.711990 -8.753799 31.231382 0.000000 -0.000000 -0.000000 12.022186 -11.896834 -34.747720 1.114992 1.077126 15.880047 
-7.106470 0.671044 5.673883 -7.626000 3.299275 22.669363 0.000000 0.000000 0.000000 -7.055823 1.157909 4.939530 -1.959585 1.022579 2.438527 0.000000 0.000000 0.000000 -1.814258 1.317481 2.445588 -0.420038 2.224023 -2.319367 -1.957236 1.168799 2.383662 -13.686225 -1.568815 10.940946 -47.307265 -8.718644 -2.807892 0.154892 -24.319121 0.408130 -1.865950 1.052649 2.472547 22.695816 -3.136220 13.808376 45.981778 6.522156 -1.532756 0.001621 16.341183 -0.345487 -0.000000 -0.000000 -0.000000 8.116909 18.323274 -48.257517 5.802257 -8.405011 30.759771 0.000000 -0.000000 -0.000000 11.819113 -12.513126 -34.211026 0.821464 1.280629 15.498516 
-6.716746 0.800327 5.589470 -7.538200 3.312857 22.331553 0.000000 0.000000 0.000000 -7.071776 1.167145 4.920549 -1.971844 1.042587 2.338146 0.000000 0.000000 0.000000 -1.825745 1.335397 2.347551 -0.421858 1.676327 -2.216190 -1.954944 1.184286 2.327548 -13.639532 -1.687398 11.097276 -47.653585 -8.668968 -3.252915 0.158434 -24.042039 0.407820 -1.858360 1.069798 2.410910 22.393719 -3.259759 13.913999 46.583205 6.603719 -1.253866 -0.024445 16.344783 -0.358606 -0.000000 -0.000000 -0.000000 7.984577 18.083152 -47.670025 5.895175 -8.063360 30.328373 0.000000 -0.000000 -0.000000 11.618846 -13.089539 -33.778869 0.482405 1.404457 15.183288 
-6.308858 0.923131 5.455978 -7.448653 3.430131 22.023575 0.000000 0.000000 0.000000 -7.119656 1.188933 4.924785 -2.002407 1.064049 2.253838 0.000000 0.000000 0.000000 -1.864363 1.363149 2.264853 -0.416660 1.133958 -2.099836 -1.980113 1.206558 2.280102 -13.616032 -1.760868 11.210065 -48.030235 -8.699500 -3.559472 0.163475 -24.091550 0.402900 -1.874576 1.089666 2.365087 22.081629 -3.298477 13.952281 47.424447 6.978173 -1.037429 -0.044484 16.339493 -0.369998 -0.000000 -0.000000 -0.000000 7.810173 17.818274 -47.176428 5.948410 -7.842612 29.863652 0.000000 -0.000000 -0.000000 11.414067 -13.621092 -33.424550 0.124683 1.429690 14.897128 
-5.886353 1.038432 5.275222 -7.368219 3.647403 21.748598 0.000000 0.000000 0.000000 -7.217687 1.241609 4.941312 -2.044621 1.087746 2.195740 0.000000 0.000000 0.000000 -1.918891 1.402524 2.203898 -0.428761 0.570773 -1.993053 -2.026968 1.237321 2.245630 -13.620021 -1.790856 11.260791 -48.416766 -8.842952 -3.670379 0.166346 -24.334930 0.395183 -1.901583 1.112179 2.334969 21.834067 -3.308416 13.971507 48.471951 7.538252 -0.825043 -0.058193 16.326293 -0.375518 -0.000000 -0.000000 -0.000000 7.599090 17.534104 -46.781585 5.961701 -7.719274 29.392386 0.000000 -0.000000 -0.000000 11.180474 -14.044023 -33.131093 -0.249664 1.286286 14.622166 
-5.450582 1.143575 5.045243 -7.291799 3.908825 21.515537 0.000000 0.000000 0.000000 -7.333398 1.353485 4.981282 -2.084079 1.117406 2.160255 0.000000 0.000000 0.000000 -1.971993 1.452580 2.173581 -0.492605 -0.044780 -1.896574 -2.078785 1.276291 2.227690 -13.686317 -1.778555 11.244260 -48.725615 -9.139617 -3.608878 0.164628 -24.627190 0.382587 -1.925732 1.137711 2.326822 21.723658 -3.169408 14.011914 49.425984 8.077732 -0.652514 -0.067075 16.164098 -0.377001 -0.000000 -0.000000 -0.000000 7.336267 17.236132 -46.531081 5.960296 -7.678431 28.975833 0.000000 -0.000000 -0.000000 10.903467 -14.338570 -32.904739 -0.631499 0.962496 14.351843 
